<svg
  width="340"
  height="110"
  viewBox="0 0 340 110"
  fill="none"
  xmlns="http://www.w3.org/2000/svg"
>
  <g clip-path="url(#clip0_5_326)">
    <path
      d="M190.177 33.9415C196.512 33.9415 200.678 35.3173 203.93 37.7183C208.836 41.3818 211.862 47.333 211.862 53.9746C211.862 60.6162 208.836 66.5674 203.93 70.2308C200.678 72.6371 196.512 74.0077 190.177 74.0077H177.621V33.9415H190.177ZM201.248 45.272C199.024 42.469 195.767 40.8047 191.03 40.8047H185.322V67.1342H191.03C195.767 67.1342 199.019 65.4751 201.248 62.6721C203.077 60.3843 204.156 57.2928 204.156 53.9694C204.161 50.6564 203.077 47.5648 201.248 45.272Z"
      fill="black"></path>
    <path
      d="M257.976 72.462C257.976 77.4445 257.118 79.7477 255.464 82.0921C252.951 85.5855 248.502 87.6465 243.195 87.6465C237.775 87.6465 232.638 85.1269 229.895 81.922L234.575 77.058C236.059 78.6605 238.628 81.0667 243.195 81.0667C245.595 81.0667 247.588 80.3196 248.847 78.8357C249.987 77.5733 250.557 75.8575 250.557 72.3074V72.0652C248.333 73.781 245.934 74.5848 243.139 74.5848C239.029 74.5848 235.094 72.7557 232.638 69.8909C230.47 67.3713 229.155 63.9397 229.155 60.1577C229.155 51.9704 235.207 45.674 242.738 45.674C245.877 45.674 248.672 46.7045 250.845 48.4769V46.2459H257.976V72.462ZM250.557 55.979C249.016 53.918 246.56 52.5474 243.709 52.5474C239.373 52.5474 236.573 56.1542 236.573 60.1629C236.573 64.5116 239.712 67.7165 243.879 67.7165C246.673 67.7165 249.129 66.3408 250.557 64.2798V55.979Z"
      fill="black"></path>
    <path
      d="M268.194 33.3336C270.707 33.3336 272.736 35.2607 272.736 37.7803C272.736 40.2998 270.707 42.2269 268.194 42.2269C265.682 42.2269 263.653 40.2998 263.653 37.7803C263.653 35.2607 265.682 33.3336 268.194 33.3336ZM271.904 74.0077H264.485V46.2459H271.904V74.0077Z"
      fill="black"></path>
    <path
      d="M220.54 33.3336C223.052 33.3336 225.081 35.2607 225.081 37.7803C225.081 40.2998 223.052 42.2269 220.54 42.2269C218.027 42.2269 215.998 40.2998 215.998 37.7803C215.998 35.2607 218.027 33.3336 220.54 33.3336ZM224.249 74.0077H216.83V46.2459H224.249V74.0077Z"
      fill="black"></path>
    <path
      d="M294.678 74.0078C293.707 74.353 291.482 74.5797 290.054 74.5797C285.605 74.5797 282.348 73.0906 280.468 70.571C279.039 68.68 278.413 66.2223 278.413 62.2703V52.5423V46.2459V38.5171H285.831V46.2459H293.578V52.5423H285.831V63.1308C285.831 64.8465 286.114 65.8771 286.746 66.6242C287.485 67.4846 288.687 67.9947 290.511 67.9947C291.595 67.9947 293.023 67.8247 293.537 67.7062L294.678 74.0078Z"
      fill="black"></path>
    <path
      d="M326.067 74.0076H318.931V71.7766C316.65 73.7243 314.025 74.5796 311.225 74.5796C307.115 74.5796 303.237 72.7504 300.781 69.8856C298.613 67.366 297.241 63.9293 297.241 60.1525C297.241 51.9651 303.288 45.6687 310.825 45.6687C313.964 45.6687 316.758 46.6992 318.926 48.4717V46.2406H326.062V74.0076H326.067ZM318.649 55.9789C317.108 53.9179 314.652 52.5473 311.801 52.5473C307.465 52.5473 304.665 56.1541 304.665 60.1628C304.665 64.5115 307.804 67.7164 311.97 67.7164C314.765 67.7164 317.221 66.3407 318.649 64.2848V55.9789Z"
      fill="black"></path>
    <path d="M340 74.0077H332.576V33.9415H339.995L340 74.0077Z" fill="black"
    ></path>
    <path d="M166.067 22.3535H0V85.5957H166.067V22.3535Z" fill="black"></path>
    <path
      d="M103.011 74.0077H93.3369L72.7307 49.765V74.0077H63.062V33.9415H72.7307L93.3369 58.1585V33.9415H103.011V74.0077Z"
      fill="white"></path>
    <path
      d="M134.539 33.9415H114.56V43.6438H119.656V64.3106H114.56V74.0128H134.539C145.554 74.0128 154.513 65.0268 154.513 53.9797C154.513 42.9276 145.554 33.9415 134.539 33.9415ZM134.539 64.3054H129.33V43.6386H134.539C140.221 43.6386 144.84 48.2759 144.84 53.9694C144.845 59.6733 140.221 64.3054 134.539 64.3054Z"
      fill="white"></path>
    <path
      d="M31.5336 33.9415C20.519 33.9415 11.5593 42.9276 11.5593 53.9746V74.0128H21.2331V68.9015H41.8393V74.0128H51.5131V53.9746C51.5079 42.9276 42.5483 33.9415 31.5336 33.9415ZM41.8342 59.1941H21.228V53.9694C21.228 48.2707 25.8516 43.6386 31.5285 43.6386C37.2105 43.6386 41.829 48.2707 41.829 53.9694L41.8342 59.1941Z"
      fill="white"></path>
  </g>
  <defs>
    <clipPath id="clip0_5_326">
      <rect width="340" height="110" fill="white"></rect>
    </clipPath>
  </defs>
</svg>
