<svg width="340" height="340" viewBox="0 0 340 340" fill="none" xmlns="http://www.w3.org/2000/svg">
<path d="M159.71 50.5526H179.395C181.631 50.5526 183.421 48.7631 183.421 46.5263C183.421 44.2894 181.631 42.4999 179.395 42.4999H159.71V50.5526ZM159.71 69.342H179.842C182.526 69.342 184.316 67.5526 184.316 64.8684C184.316 62.1841 182.526 60.3947 179.842 60.3947H159.71V69.342ZM191.474 55.0263C194.158 57.7105 195.947 61.2894 195.947 65.3157C195.947 73.3684 189.684 79.6315 181.631 79.6315H148.974V32.6578H181.184C188.789 32.6578 195.053 38.921 195.053 46.5263C194.605 49.6578 193.263 52.7894 191.474 55.0263ZM199.079 135.553H187L183.421 127.5H157.026L153.447 135.553H141.368L164.631 88.5789H175.368L199.079 135.553ZM170 100.658L161.947 117.658H178.053L170 100.658ZM186.105 145.842H199.526L175.816 176.263V192.816H164.631V176.263L140.921 145.842H154.342L170.447 167.316L186.105 145.842ZM248.289 145.842V156.132H216.974V164.184H247.395V174.474H216.974V183.421H248.289V193.71H205.789V145.842H248.289ZM282.737 174.921H274.237V192.816H263.053V145.842H291.684C299.737 145.842 306 152.553 306 160.605C306 167.316 301.526 172.684 295.71 174.474L309.579 192.816H296.158L282.737 174.921ZM290.789 155.684H274.684V164.632H290.789C293.474 164.632 295.263 162.395 295.263 160.158C295.263 157.921 293.026 155.684 290.789 155.684ZM145.842 192.816H133.763L130.184 184.763H103.789L100.21 192.816H88.1315L111.842 145.842H122.579L145.842 192.816ZM116.763 157.921L108.71 174.921H125.263L116.763 157.921ZM45.6315 163.737H65.3157C67.5525 163.737 69.342 161.947 69.342 159.71C69.342 157.474 67.5525 155.684 65.3157 155.684H45.6315V163.737ZM45.6315 182.526H65.7631C68.4473 182.526 70.2367 180.737 70.2367 178.053C70.2367 175.368 68.4473 173.579 65.7631 173.579H45.6315V182.526ZM77.3946 168.21C80.0788 170.895 81.8683 174.474 81.8683 178.5C81.8683 186.553 75.6052 192.816 67.5525 192.816H34.4473V145.842H66.6578C74.2631 145.842 80.5262 152.105 80.5262 159.71C80.5262 162.842 79.1841 165.974 77.3946 168.21ZM191.474 202.658V212.947H160.158V221H190.579V231.289H160.158V240.237H191.474V250.526H148.974V202.658H191.474ZM183.421 275.579C183.421 272.895 181.631 271.105 178.947 271.105H159.71V280.053H178.947C181.631 280.053 183.421 278.263 183.421 275.579ZM148.526 308.237V261.263H179.842C187.895 261.263 194.158 267.974 194.158 276.026C194.158 282.289 190.579 287.21 185.21 289.447L199.526 308.237H186.105L172.684 290.342H159.71V308.237H148.526Z" fill="#10384F"/>
<path d="M339.553 159.263C334.184 70.6842 260.368 0 170 0C79.6315 0 5.81569 70.6842 0.447266 159.263C0.447266 162.842 0.894634 166.421 1.342 170C4.92095 199.526 16.1052 226.816 33.1052 249.632C63.9736 291.684 113.631 318.974 170 318.974C91.2631 318.974 26.842 257.684 21.4736 180.737C21.0262 177.158 21.0262 173.579 21.0262 170C21.0262 166.421 21.0262 162.842 21.4736 159.263C26.842 82.3158 91.2631 21.0263 170 21.0263C226.368 21.0263 276.026 48.3158 306.895 90.3684C323.895 113.184 335.079 140.474 338.658 170C339.105 173.579 339.553 177.158 339.553 180.289C339.553 176.711 340 173.132 340 169.553C340 166.421 340 162.842 339.553 159.263Z" fill="#89D329"/>
<path d="M0.447368 180.737C5.81579 269.316 79.6316 340 170 340C260.368 340 334.184 269.316 339.553 180.737C339.553 177.158 339.105 173.579 338.658 170C335.079 140.474 323.895 113.184 306.895 90.3685C276.026 48.3158 226.368 21.0264 170 21.0264C248.737 21.0264 313.158 82.3158 318.526 159.263C318.974 162.842 318.974 166.421 318.974 170C318.974 173.579 318.974 177.158 318.526 180.737C313.158 258.132 248.737 318.974 170 318.974C113.632 318.974 63.9737 291.684 33.1053 249.632C16.1053 226.816 4.92105 199.526 1.34211 170C0.894737 166.421 0.447368 162.842 0.447368 159.711C0.447368 163.29 0 166.868 0 170.447C0 173.579 3.33315e-08 177.158 0.447368 180.737Z" fill="#00BCFF"/>
</svg>
