<svg width="340" height="131" viewBox="0 0 340 131" fill="none" xmlns="http://www.w3.org/2000/svg">
<path d="M64.7173 93.5714H73.1587V85.15C68.938 84.6821 64.7173 85.8518 64.7173 90.5304V93.5714Z" fill="#002F87"/>
<path d="M53.9311 96.1446C45.0207 96.3786 40.3311 99.1857 40.3311 108.309V130.532H48.7724V108.309C48.7724 104.098 50.4138 103.396 53.6966 103.396C55.8069 103.162 56.5104 103.63 58.3862 102.695C60.0276 101.759 60.7311 99.6536 60.7311 96.6125C58.6207 96.1446 56.7448 95.9107 53.9311 96.1446Z" fill="#002F87"/>
<path d="M8.91035 103.396V91.2321H19.931C24.8552 91.2321 26.0276 92.8696 26.0276 97.3143C26.0276 101.759 24.6207 103.63 19.931 103.63L8.91035 103.396ZM35.8759 117.198C35.8759 109.712 32.5931 107.139 28.3724 106.204C31.8897 104.566 34.469 102.461 34.469 96.1446C34.469 87.2553 30.2483 83.9803 21.3379 83.9803H0V130.532H22.5103C30.9517 130.532 35.8759 127.257 35.8759 117.198ZM8.67586 110.414H21.1034C25.7931 110.414 27.2 112.286 27.2 116.73C27.2 121.175 25.7931 123.28 21.1034 123.28H8.91035C8.91035 123.28 8.91035 110.414 8.67586 110.414Z" fill="#002F87"/>
<path d="M109.269 93.5714H117.71V85.15C113.49 84.6821 109.269 85.8518 109.269 90.5304V93.5714Z" fill="#002F87"/>
<path d="M117.945 96.3785H109.269V130.298H117.945V96.3785Z" fill="#002F87"/>
<path d="M177.503 96.1446C173.048 96.1446 167.186 98.4839 163.669 99.8875V82.8107C159.448 82.3429 155.228 83.5125 155.228 88.1911V130.298H163.669V106.671C167.421 105.268 171.876 103.864 174.924 103.864C177.503 103.864 178.91 105.502 178.91 107.607V130.298H187.352V107.139C187.352 100.121 184.772 96.1446 177.503 96.1446Z" fill="#002F87"/>
<path d="M73.1587 96.3785H64.7173V130.298H73.1587V96.3785Z" fill="#002F87"/>
<path d="M92.6207 103.162H98.4827C102.938 103.162 104.579 101.057 104.11 96.3786H92.3862V85.15C88.1655 84.6821 83.9448 85.8518 83.9448 90.5304V96.6125H77.6138V103.396H83.9448V118.836C83.9448 127.257 87.462 131 96.3724 131C99.1862 131 101.297 130.766 103.641 130.532L103.407 123.748C101.765 123.982 99.4207 123.982 97.5448 123.982C94.262 123.982 92.6207 122.812 92.6207 119.304V103.162Z" fill="#002F87"/>
<path d="M130.841 105.97C130.841 103.864 132.483 103.162 134.593 103.162C138.11 103.162 141.393 103.396 143.503 103.396C147.255 103.63 149.131 101.525 148.896 97.0803C146.317 96.8464 140.455 96.3785 135.531 96.3785C128.027 96.3785 122.4 99.1857 122.4 106.204C122.4 113.221 126.621 115.561 134.124 116.73C140.924 117.9 142.331 118.368 142.331 120.707C142.331 123.514 139.048 123.982 136 123.982C131.545 123.982 126.621 123.748 123.572 123.514L123.103 130.532C126.386 130.766 131.076 131 136.234 131C145.145 131 150.538 128.193 150.538 120.941C150.538 113.689 146.786 111.818 139.517 110.414C132.952 109.011 130.841 108.543 130.841 105.97Z" fill="#002F87"/>
<path d="M244.566 103.63H226.979C226.51 108.777 228.152 110.882 232.607 110.882H235.655V122.579C233.31 123.046 227.683 123.28 225.338 123.28C218.303 123.28 215.724 120.473 215.724 106.905C215.724 93.3375 217.835 90.5304 228.855 91.2321L236.359 91.7C241.283 91.9339 243.159 89.3607 243.159 84.9161C239.641 84.4482 230.731 83.2786 226.979 83.2786C211.035 83.2786 206.579 87.9571 206.579 106.671C206.579 125.386 211.738 130.532 225.103 130.532C230.028 130.532 239.641 129.362 244.566 128.427V103.63Z" fill="#002F87"/>
<path d="M293.103 105.97C293.103 103.864 294.745 103.162 296.855 103.162C300.372 103.162 303.655 103.396 305.765 103.396C309.517 103.63 311.393 101.525 311.393 97.0803C308.814 96.8464 302.952 96.3785 298.028 96.3785C290.524 96.3785 284.896 99.1857 284.896 106.204C284.896 113.221 289.117 115.561 296.621 116.73C303.421 117.9 304.828 118.368 304.828 120.707C304.828 123.514 301.545 123.982 298.496 123.982C294.041 123.982 289.117 123.748 286.069 123.514L285.6 130.532C288.883 130.766 293.572 131 298.731 131C307.641 131 313.034 128.193 313.034 120.941C313.034 113.689 309.283 111.818 302.014 110.414C295.214 109.011 293.103 108.543 293.103 105.97Z" fill="#002F87"/>
<path d="M280.207 107.139C280.207 100.121 277.159 96.3785 268.483 96.3785C263.09 96.3785 256.055 97.0803 252.772 97.3142C252.772 101.525 253.945 103.63 257.697 103.63C260.276 103.63 265.2 103.396 268.014 103.396C270.593 103.396 271.765 104.332 271.765 107.139V108.309C268.014 108.543 264.497 109.011 261.214 109.479C253.71 110.648 249.255 112.754 249.255 120.239C249.255 126.789 252.538 131 259.807 131C267.076 131 275.752 130.532 280.207 129.83V107.139ZM271.531 124.216C269.421 124.45 264.965 124.684 261.448 124.684C257.931 124.684 257.462 122.345 257.462 120.473C257.462 117.432 258.869 116.496 262.386 115.795C265.2 115.327 268.248 114.859 271.531 114.625V124.216Z" fill="#002F87"/>
<path d="M338.359 0L286.303 16.8429C286.303 16.8429 274.814 20.8196 268.483 26.2C264.497 29.475 261.917 33.9196 260.745 38.8321C265.2 36.4929 269.655 34.8554 269.655 34.8554L311.393 21.2875C311.393 21.2875 313.035 52.8679 294.51 66.9036C299.903 65.7339 306.235 63.6286 313.269 59.4179C340.704 43.9786 338.359 0 338.359 0Z" fill="#002F87"/>
<path d="M286.303 67.6054C272 67.6054 260.276 57.0786 260.276 43.9786C260.276 42.3411 260.51 40.4697 260.745 38.8322C258.869 39.7679 256.993 41.1714 255.352 42.3411C251.131 45.85 248.786 50.9964 248.786 56.6107C248.786 67.1375 258.165 75.5589 269.655 75.5589C275.283 75.7929 282.317 74.1554 291.228 69.0089C292.4 68.3072 293.338 67.6054 294.51 66.9036C291.462 67.6054 288.648 67.6054 286.303 67.6054Z" fill="#80BC00"/>
</svg>
