<svg width="300" height="95" viewBox="0 0 300 95" fill="none" xmlns="http://www.w3.org/2000/svg">
<g clip-path="url(#clip0_5_288)">
<path d="M159.577 58.128C157.464 57.004 155.069 56.4662 152.241 56.4662C146.778 56.4662 142.414 58.6645 140.02 62.9663C138.824 65.1138 138.2 67.8046 138.2 71.0319V71.9097H138.196C138.196 81.395 143.136 86.1369 152.195 86.1369C157.902 86.1369 162.121 84.0322 164.515 79.7813C165.666 77.6806 166.24 75.0393 166.24 71.9097V71.0319C166.24 64.679 163.795 60.3772 159.577 58.128ZM157.563 71.812C157.563 76.2623 155.451 78.462 152.241 78.462C149.032 78.462 146.873 76.2114 146.873 71.812V71.0319C146.873 66.2418 148.887 63.9926 152.29 63.9926C155.695 63.9926 157.563 66.3876 157.563 71.0306V71.812ZM190.266 58.128C188.152 57.004 185.758 56.4662 182.929 56.4662C177.466 56.4662 173.101 58.6645 170.707 62.9663C169.511 65.1138 168.888 67.8046 168.888 71.0319V71.9097C168.888 81.395 173.826 86.1369 182.884 86.1369C188.59 86.1369 192.809 84.0322 195.205 79.7813C196.354 77.6806 196.93 75.0393 196.93 71.9097V71.0319C196.93 64.679 194.483 60.3772 190.266 58.128ZM188.251 71.812C188.251 76.2623 186.139 78.462 182.929 78.462C179.72 78.462 177.561 76.2114 177.561 71.812V71.0319C177.561 66.2418 179.574 63.9926 182.979 63.9926C186.382 63.9926 188.251 66.3876 188.251 71.0306V71.812ZM55.7733 76.4817C40.6045 76.4817 26.5648 61.7969 26.5648 45.5626C26.5648 28.4947 36.1166 18.149 43.9219 14.3959C37.8335 32.0766 48.3911 43.308 48.3911 43.308C48.3911 43.308 55.3232 43.6826 67.4652 34.9119C79.1558 26.4649 80.0009 20.8759 80.0009 20.8759C75.4916 11.3224 63.2103 0.437561 46.2536 0.437561C20.8755 0.437561 0.294678 21.3991 0.294678 47.2685C0.294678 73.138 19.0741 94.0995 44.4643 94.0995C61.3474 94.0995 76.0246 83.5251 82.563 70.9784L79.3982 68.3559C79.3982 68.3559 71.7831 76.4817 55.7733 76.4817ZM136.215 57.4456V50.354H110.61V58.6672H124.945C124.945 63.9952 109.701 68.0066 109.701 79.0093H109.694V85.4117H136.31V76.9554H121.876C121.876 72.2576 136.215 65.7427 136.215 57.4456ZM238.851 16.7388L238.848 16.7347C241.704 16.1407 242.271 14.6835 242.344 11.8362V8.66911H234.955C234.908 9.84256 234.81 12.6337 234.668 13.8071C234.429 16.249 233.217 16.9983 231.526 16.9983H228.896V24.6144H233.594V33.705C233.594 39.619 232.93 45.6335 244.046 45.6335V45.6362H248.661V37.3738H246.887C244.108 37.3738 242.909 37.0795 242.383 35.5648C242.188 34.7807 242.046 33.5578 242.046 31.9468V24.6144H248.66V16.7441H238.836L238.85 16.7374L238.851 16.7388ZM124.409 46.3627C133.9 46.3627 139.078 41.7679 139.509 31.8946V31.0169H131.894C131.441 31.0201 131.005 31.1895 130.669 31.4929C130.332 31.7963 130.119 32.2126 130.07 32.6626C129.634 36.2097 127.985 38.0549 124.646 38.0549C120.718 38.0549 118.799 35.2691 118.799 29.6962V26.6643C118.799 20.7007 120.621 17.9135 124.647 17.9135C128.018 17.9135 129.559 19.6182 130.005 22.9285C130.009 22.9378 130.009 22.9485 130.009 22.9606C130.058 23.4106 130.271 23.8269 130.607 24.1303C130.943 24.4337 131.38 24.6031 131.833 24.6064H139.365V23.5319C138.935 14.2942 133.852 9.89474 124.65 9.89474C115.446 9.89474 109.694 15.1251 109.694 26.0742V30.5245C109.694 41.329 114.917 46.3614 124.41 46.3614L124.409 46.3627ZM151.603 30.8228C151.603 26.9586 152.893 24.3682 156.107 24.3682C159.321 24.3682 160.231 26.6669 160.231 30.1391V45.6348H169.003V27.4992C169.003 20.607 166.173 16.6959 159.895 16.6959C155.87 16.6959 153.137 18.5518 151.603 21.6319V9.86397C151.603 8.82967 150.778 7.99073 149.766 7.99073H142.926V45.6348H151.603V30.8228ZM224.174 30.0923C222.067 28.9202 219.525 28.4304 217.079 28.0893C212.956 27.554 210.608 27.2583 210.608 25.5002C210.608 24.1327 211.567 23.1038 214.251 23.1038C216.351 23.1038 217.728 23.746 218.375 25.0867C218.684 25.729 219.321 26.1357 220.021 26.1357H227.288C226.473 20.413 222.784 16.6504 214.347 16.6504C206.439 16.6504 202.22 20.4638 202.22 26.0367C202.22 29.4567 203.565 31.4102 205.674 32.5369C207.734 33.7116 210.276 34.1519 212.672 34.4931C214.971 34.7379 217.081 35.0283 218.231 35.6652C218.851 36.0077 219.141 36.4961 219.141 37.133C219.141 38.6985 217.992 39.6257 215.211 39.6257C212.814 39.6257 211.25 38.8122 210.461 37.2093C210.149 36.5737 209.534 36.1549 208.838 36.1549H201.071L201.075 36.1576H201.071C201.982 42.7085 206.44 46.4243 214.781 46.4243C220.58 46.4243 224.32 44.5644 226.238 41.6328C227.148 40.1141 227.628 38.4536 227.628 36.5469C227.628 33.2219 226.235 31.2657 224.175 30.0923H224.174ZM297.563 16.8913C292.532 16.8913 289.749 18.6508 288.84 23.0997L288.541 21.6453C288.016 19.1031 285.814 17.2807 283.268 17.2807H280.643V45.6402H289.56V33.0761C289.56 29.6547 290.131 27.7481 291.955 26.9171C292.911 26.4756 294.209 26.2294 295.884 26.2294H299.143V16.8913H297.563ZM190.243 37.1838C189.742 38.2195 188.53 39.6699 185.654 39.6699C183.879 39.6699 182.759 39.0678 182.044 38.1231C181.863 37.8729 181.025 36.5804 182.014 35.2865C183.121 33.8401 187.153 34.7459 192.044 33.3959C196.745 32.098 198.755 29.6628 198.755 26.1785C198.755 22.2059 195.931 16.6518 186.241 16.6518C176.55 16.6518 171.609 23.6764 171.609 31.4076C171.609 39.1414 174.869 46.4243 185.827 46.4243C196.785 46.4243 198.825 37.9278 199.017 36.1616H191.831C191.112 36.1616 190.543 36.563 190.243 37.1838ZM186.413 23.1038C190.235 23.1038 190.381 26.1812 188.805 27.4216C187.246 28.6459 183.275 27.914 180.726 29.7043C180.976 26.0835 182.685 23.1038 186.413 23.1038ZM269.306 37.1838C268.805 38.2181 267.593 39.6685 264.718 39.6685C262.969 39.6685 261.856 39.0852 261.141 38.1659L261.107 38.1231C260.928 37.8743 260.087 36.5817 261.078 35.2865C262.184 33.8401 266.217 34.7459 271.108 33.3959C275.809 32.098 277.819 29.6628 277.819 26.1785C277.819 22.2059 274.994 16.6518 265.303 16.6518C255.612 16.6518 250.671 23.6764 250.671 31.4076C250.671 39.1414 253.933 46.4243 264.891 46.4243C275.849 46.4243 277.887 37.9278 278.079 36.1616H270.895C270.216 36.1616 269.605 36.563 269.305 37.1838H269.306ZM265.476 23.1024C269.298 23.1024 269.444 26.1812 267.868 27.4202C266.309 28.6445 262.338 27.914 259.789 29.7029C260.04 26.0835 261.749 23.1024 265.476 23.1024Z" fill="black"/>
</g>
<defs>
<clipPath id="clip0_5_288">
<rect width="300" height="95" fill="white"/>
</clipPath>
</defs>
</svg>
