<svg width="274" height="95" viewBox="0 0 274 95" fill="none" xmlns="http://www.w3.org/2000/svg">
<path d="M75.9033 30.1199C68.4421 30.1199 62.3738 24.0508 62.3738 16.5885C62.3738 9.1261 68.4421 3.05374 75.9033 3.05374C83.3648 3.05374 89.4331 9.12281 89.4331 16.5852C89.4331 24.0475 83.3648 30.1199 75.9033 30.1199ZM75.9033 7.80458C71.062 7.80458 67.1241 11.743 67.1241 16.5852C67.1241 21.4274 71.062 25.3658 75.9033 25.3658C80.7449 25.3658 84.6828 21.4274 84.6828 16.5852C84.6828 11.743 80.7449 7.80458 75.9033 7.80458Z" fill="black"/>
<path d="M193.196 71.5299C191.626 73.6952 189.566 75.4578 187.183 76.6731C184.801 77.8885 182.165 78.5222 179.491 78.5226C170.147 78.5226 162.542 70.9199 162.542 61.5715C162.542 52.2232 170.143 44.6205 179.491 44.6205C182.165 44.6208 184.801 45.2543 187.183 46.4699C189.566 47.6852 191.626 49.4478 193.196 51.6128L203.509 43.0051C200.675 39.3307 197.037 36.3555 192.872 34.3082C188.709 32.261 184.131 31.1965 179.491 31.1967C162.744 31.1967 149.123 44.8227 149.123 61.5681C149.123 78.3136 162.747 91.943 179.491 91.943C184.131 91.943 188.709 90.8787 192.872 88.8314C197.037 86.7842 200.675 83.809 203.509 80.1345L193.196 71.5299ZM53.8618 71.5299C52.2918 73.6952 50.2313 75.4578 47.8488 76.6731C45.4667 77.8885 42.8305 78.5222 40.1562 78.5226C30.8124 78.5226 23.2075 70.9199 23.2075 61.5715C23.2075 52.2232 30.8124 44.6205 40.1562 44.6205C42.8305 44.6208 45.4667 45.2543 47.8488 46.4699C50.2313 47.6852 52.2918 49.4478 53.8618 51.6128L64.1747 43.0051C61.341 39.3307 57.702 36.3555 53.5382 34.3082C49.3741 32.261 44.796 31.1965 40.1562 31.1967C23.4098 31.1999 9.78564 44.8261 9.78564 61.5746C9.78564 78.3234 23.4098 91.9461 40.1562 91.9461C44.796 91.9464 49.3741 90.8821 53.5382 88.8348C57.702 86.7876 61.341 83.812 64.1747 80.1376L53.8618 71.5299ZM69.1923 35.8462H82.6109V90.9248H69.1923V35.8462ZM144.409 90.9248H130.987V59.6105C130.987 57.5286 130.69 53.5936 128.697 50.6014C126.472 47.2635 122.449 45.6417 116.394 45.6417C110.166 45.6417 105.987 47.7758 103.967 50.6014C102.023 53.3194 101.801 56.7421 101.801 59.6105V90.9248H88.379V59.6105C88.379 54.8988 88.862 47.9553 93.0476 42.0982C97.7294 35.5429 105.585 32.2212 116.394 32.2212C123.774 32.2212 133.839 34.1203 139.864 43.1585C143.619 48.7937 144.409 55.2184 144.409 59.6105V90.9248ZM259.669 43.1585C253.644 34.1169 243.579 32.2212 236.199 32.2212C230.503 32.2212 225.629 33.1446 221.606 34.9783V19.7503H208.184V90.9248H221.606V59.6105C221.606 56.7455 221.831 53.3194 223.772 50.6014C225.792 47.7758 229.971 45.6417 236.199 45.6417C242.254 45.6417 246.277 47.2635 248.502 50.6014C250.495 53.5936 250.792 57.5286 250.792 59.6105V90.9248H264.214V59.6105C264.214 55.2184 263.425 48.7937 259.669 43.1585Z" fill="black"/>
</svg>
