<svg width="340" height="193" viewBox="0 0 340 193" fill="none" xmlns="http://www.w3.org/2000/svg">
<path d="M54.632 131.453C45.5814 131.453 37.2774 129.357 29.7194 125.165C22.255 120.974 16.3301 115.245 11.9447 107.98C7.65263 100.622 5.50659 92.5179 5.50659 83.6692C5.50659 74.8204 7.69929 66.7634 12.0847 59.4979C16.47 52.1396 22.3949 46.3646 29.8594 42.1732C37.417 37.9817 45.7214 35.8857 54.772 35.8857C63.5427 35.8857 71.4737 37.9352 78.565 42.0334C85.7494 46.0385 91.3944 51.6272 95.5 58.7995L81.2244 68.8591C74.6927 58.5199 65.8754 53.3505 54.772 53.3505C49.0804 53.3505 43.9487 54.6546 39.3767 57.2624C34.898 59.8706 31.3523 63.5033 28.7397 68.1606C26.2205 72.7247 24.9608 77.9407 24.9608 83.8089C24.9608 89.6771 26.2205 94.8931 28.7397 99.4572C31.3523 104.021 34.898 107.607 39.3767 110.215C43.9487 112.73 49.0804 113.988 54.772 113.988C65.8754 113.988 74.6927 108.818 81.2244 98.4793L95.5 108.539C91.4877 115.711 85.8894 121.346 78.705 125.445C71.5204 129.45 63.496 131.453 54.632 131.453ZM137.762 131.313C130.951 131.313 124.699 129.729 119.008 126.562C113.409 123.302 108.977 118.925 105.711 113.429C102.446 107.84 100.813 101.739 100.813 95.126C100.813 88.5128 102.446 82.4583 105.711 76.9627C108.977 71.3741 113.456 66.9963 119.147 63.8294C124.839 60.6622 131.091 59.079 137.902 59.079C144.713 59.079 150.965 60.7088 156.656 63.9692C162.348 67.1361 166.827 71.4672 170.092 76.9627C173.451 82.4583 175.131 88.5128 175.131 95.126C175.131 101.739 173.451 107.84 170.092 113.429C166.827 118.925 162.301 123.302 156.516 126.562C150.825 129.729 144.573 131.313 137.762 131.313ZM137.902 113.988C143.034 113.988 147.279 112.218 150.638 108.679C154.09 105.139 155.817 100.668 155.817 95.2658C155.817 89.8631 154.09 85.3459 150.638 81.7132C147.279 78.0805 143.034 76.2643 137.902 76.2643C132.677 76.2643 128.385 78.0805 125.026 81.7132C121.667 85.2528 119.987 89.7703 119.987 95.2658C119.987 100.668 121.667 105.139 125.026 108.679C128.385 112.218 132.677 113.988 137.902 113.988ZM254.963 24.9879V129.776H237.608V121.253C235.276 124.513 232.15 127.028 228.231 128.798C224.405 130.568 220.113 131.453 215.355 131.453C208.917 131.453 203.132 129.916 198 126.842C192.961 123.675 188.996 119.344 186.103 113.848C183.211 108.353 181.765 102.159 181.765 95.2658C181.765 88.373 183.211 82.1787 186.103 76.6832C188.996 71.1877 192.961 66.9031 198 63.8294C203.132 60.6622 208.917 59.079 215.355 59.079C224.126 59.079 231.03 61.8266 236.069 67.3224V24.9879H254.963ZM218.854 114.267C223.612 114.267 227.718 112.684 231.17 109.517C234.622 106.257 236.349 101.506 236.349 95.2658C236.349 89.1181 234.622 84.4142 231.17 81.1542C227.718 77.801 223.612 76.1245 218.854 76.1245C213.815 76.1245 209.57 77.8941 206.118 81.4337C202.665 84.8801 200.939 89.4442 200.939 95.126C200.939 100.901 202.619 105.558 205.978 109.098C209.43 112.544 213.722 114.267 218.854 114.267ZM334.447 91.2138C334.447 94.567 334.027 98.0134 333.187 101.553H284.621C285.741 105.931 287.98 109.331 291.339 111.752C294.791 114.081 299.037 115.245 304.075 115.245C310.887 115.245 317.325 112.917 323.39 108.259L331.227 121.114C323.016 128.006 313.779 131.453 303.516 131.453C296.331 131.453 289.846 129.869 284.061 126.702C278.276 123.535 273.751 119.204 270.485 113.708C267.22 108.12 265.587 101.972 265.587 95.2658C265.587 88.5594 267.173 82.4583 270.345 76.9627C273.518 71.3741 277.856 66.9963 283.362 63.8294C288.96 60.6622 295.118 59.079 301.836 59.079C308.181 59.079 313.826 60.5228 318.771 63.4102C323.716 66.2047 327.542 70.07 330.248 75.0068C333.047 79.8501 334.447 85.2528 334.447 91.2138ZM301.136 74.308C297.124 74.308 293.625 75.5655 290.639 78.0805C287.654 80.5955 285.648 83.9953 284.621 88.2799H316.112C316.019 83.9953 314.526 80.5955 311.633 78.0805C308.741 75.5655 305.242 74.308 301.136 74.308Z" fill="#00DBEE"/>
<path d="M40.4598 179.156H31.9571L30.792 181.86H26.2258L35.5154 160.734H36.9328L46.1908 181.86H41.6248L40.4598 179.156ZM36.2084 168.656L33.4371 175.667H38.9794L36.2084 168.656ZM84.1308 161.112L75.8171 182.237H74.4318L68.6374 169.222L62.8114 182.237H61.4261L53.1124 161.112H57.8361L62.4651 173.372L67.9131 160.734H69.3301L74.7781 173.309L79.4071 161.112H84.1308ZM87.3164 161.112H95.1261C96.5744 161.112 97.8658 161.395 98.9994 161.961C100.133 162.505 101.015 163.291 101.644 164.318C102.295 165.324 102.621 166.488 102.621 167.808C102.621 169.128 102.295 170.302 101.644 171.328C101.015 172.335 100.133 173.12 98.9994 173.686C97.8658 174.252 96.5744 174.535 95.1261 174.535H91.5674V181.86H87.3164V161.112ZM95.1261 170.826C96.1128 170.826 96.8791 170.553 97.4248 170.008C97.9918 169.442 98.2751 168.709 98.2751 167.808C98.2751 166.927 97.9918 166.215 97.4248 165.67C96.8581 165.125 96.0918 164.853 95.1261 164.853H91.5674V170.826H95.1261ZM106.014 161.112H113.823C115.272 161.112 116.563 161.395 117.697 161.961C118.83 162.505 119.712 163.291 120.342 164.318C120.993 165.324 121.318 166.488 121.318 167.808C121.318 169.128 120.993 170.302 120.342 171.328C119.712 172.335 118.83 173.12 117.697 173.686C116.563 174.252 115.272 174.535 113.823 174.535H110.265V181.86H106.014V161.112ZM113.823 170.826C114.81 170.826 115.576 170.553 116.122 170.008C116.689 169.442 116.973 168.709 116.973 167.808C116.973 166.927 116.689 166.215 116.122 165.67C115.555 165.125 114.789 164.853 113.823 164.853H110.265V170.826H113.823ZM152.927 160.734V181.86H148.676V170.794L143.448 177.333H142.063L136.835 170.794V181.86H132.584V160.734H133.97L142.756 171.957L151.541 160.734H152.927ZM171.883 173.183C171.883 173.938 171.789 174.713 171.6 175.51H160.673C160.925 176.495 161.429 177.26 162.184 177.805C162.961 178.328 163.916 178.591 165.05 178.591C166.582 178.591 168.031 178.067 169.396 177.019L171.159 179.911C169.312 181.462 167.233 182.237 164.924 182.237C163.307 182.237 161.848 181.881 160.547 181.168C159.245 180.456 158.227 179.481 157.492 178.245C156.757 176.987 156.39 175.604 156.39 174.095C156.39 172.586 156.747 171.213 157.461 169.977C158.174 168.719 159.151 167.734 160.389 167.022C161.649 166.309 163.035 165.953 164.546 165.953C165.974 165.953 167.244 166.278 168.356 166.927C169.469 167.556 170.33 168.426 170.939 169.537C171.569 170.627 171.883 171.842 171.883 173.183ZM164.389 169.38C163.486 169.38 162.699 169.662 162.027 170.228C161.355 170.794 160.904 171.559 160.673 172.523H167.758C167.737 171.559 167.401 170.794 166.75 170.228C166.1 169.662 165.312 169.38 164.389 169.38ZM190.788 158.283V181.86H186.884V179.942C186.359 180.676 185.655 181.242 184.774 181.64C183.913 182.038 182.947 182.237 181.877 182.237C180.428 182.237 179.126 181.891 177.972 181.2C176.838 180.487 175.946 179.513 175.295 178.276C174.644 177.04 174.319 175.646 174.319 174.095C174.319 172.544 174.644 171.15 175.295 169.914C175.946 168.677 176.838 167.713 177.972 167.022C179.126 166.309 180.428 165.953 181.877 165.953C183.85 165.953 185.403 166.571 186.537 167.808V158.283H190.788ZM182.664 178.37C183.734 178.37 184.658 178.014 185.435 177.302C186.212 176.568 186.6 175.499 186.6 174.095C186.6 172.712 186.212 171.654 185.435 170.92C184.658 170.165 183.734 169.788 182.664 169.788C181.53 169.788 180.575 170.186 179.798 170.983C179.021 171.758 178.633 172.785 178.633 174.064C178.633 175.363 179.011 176.411 179.767 177.207C180.543 177.983 181.509 178.37 182.664 178.37ZM195.005 166.299H199.256V181.86H195.005V166.299ZM197.115 163.249C196.359 163.249 195.719 162.998 195.194 162.495C194.669 161.992 194.407 161.374 194.407 160.64C194.407 159.886 194.669 159.257 195.194 158.754C195.719 158.251 196.359 158 197.115 158C197.871 158 198.511 158.251 199.036 158.754C199.582 159.257 199.855 159.886 199.855 160.64C199.855 161.374 199.582 161.992 199.036 162.495C198.511 162.998 197.871 163.249 197.115 163.249ZM209.855 165.953C211.891 165.953 213.508 166.529 214.704 167.682C215.922 168.814 216.531 170.459 216.531 172.618V181.86H212.626V180.351C212.059 180.938 211.366 181.399 210.548 181.734C209.75 182.069 208.858 182.237 207.871 182.237C206.212 182.237 204.9 181.807 203.935 180.948C202.969 180.068 202.486 178.947 202.486 177.584C202.486 176.18 203.011 175.08 204.06 174.284C205.131 173.466 206.569 173.058 208.375 173.058H212.28V172.366C212.28 171.507 212.028 170.836 211.524 170.354C211.041 169.872 210.327 169.631 209.382 169.631C208.585 169.631 207.871 169.809 207.241 170.165C206.611 170.501 205.95 171.035 205.257 171.769L203.053 169.16C204.858 167.022 207.126 165.953 209.855 165.953ZM209.005 179.125C209.928 179.125 210.705 178.842 211.335 178.276C211.965 177.689 212.28 176.945 212.28 176.044V175.855H208.942C208.249 175.855 207.713 175.992 207.336 176.264C206.958 176.516 206.769 176.904 206.769 177.427C206.769 177.951 206.968 178.37 207.367 178.685C207.787 178.978 208.333 179.125 209.005 179.125ZM242.139 170.637C243.294 171.056 244.196 171.706 244.847 172.586C245.498 173.445 245.823 174.504 245.823 175.761C245.823 176.935 245.529 177.993 244.942 178.936C244.375 179.858 243.566 180.582 242.517 181.105C241.488 181.608 240.312 181.86 238.99 181.86H229.732V161.112H237.1C238.36 161.112 239.494 161.363 240.501 161.866C241.509 162.348 242.286 163.029 242.832 163.91C243.399 164.769 243.682 165.764 243.682 166.896C243.682 168.405 243.168 169.652 242.139 170.637ZM233.825 164.759V169.505H236.754C237.615 169.505 238.276 169.296 238.738 168.877C239.221 168.436 239.462 167.85 239.462 167.116C239.462 166.383 239.221 165.806 238.738 165.387C238.276 164.968 237.615 164.759 236.754 164.759H233.825ZM238.675 178.213C239.599 178.213 240.323 177.983 240.848 177.521C241.373 177.061 241.635 176.421 241.635 175.604C241.635 174.807 241.373 174.179 240.848 173.718C240.323 173.236 239.599 172.995 238.675 172.995H233.825V178.213H238.675ZM257.194 166.11C257.719 166.11 258.181 166.173 258.58 166.299V170.04H257.446C256.166 170.04 255.147 170.385 254.392 171.077C253.636 171.748 253.258 172.754 253.258 174.095V181.86H249.007V166.299H252.912V168.154C253.436 167.504 254.066 167.001 254.801 166.645C255.536 166.288 256.334 166.11 257.194 166.11ZM267.301 165.953C269.337 165.953 270.954 166.529 272.15 167.682C273.368 168.814 273.977 170.459 273.977 172.618V181.86H270.072V180.351C269.505 180.938 268.812 181.399 267.993 181.734C267.196 182.069 266.303 182.237 265.317 182.237C263.658 182.237 262.346 181.807 261.38 180.948C260.415 180.068 259.932 178.947 259.932 177.584C259.932 176.18 260.457 175.08 261.506 174.284C262.577 173.466 264.015 173.058 265.821 173.058H269.725V172.366C269.725 171.507 269.474 170.836 268.97 170.354C268.487 169.872 267.773 169.631 266.828 169.631C266.031 169.631 265.317 169.809 264.687 170.165C264.057 170.501 263.396 171.035 262.703 171.769L260.499 169.16C262.304 167.022 264.571 165.953 267.301 165.953ZM266.45 179.125C267.374 179.125 268.151 178.842 268.781 178.276C269.411 177.689 269.725 176.945 269.725 176.044V175.855H266.387C265.695 175.855 265.159 175.992 264.781 176.264C264.404 176.516 264.215 176.904 264.215 177.427C264.215 177.951 264.414 178.37 264.813 178.685C265.233 178.978 265.779 179.125 266.45 179.125ZM286.539 165.953C288.344 165.953 289.772 166.529 290.822 167.682C291.871 168.814 292.396 170.323 292.396 172.209V181.86H288.177V172.775C288.177 171.874 287.904 171.15 287.358 170.606C286.833 170.04 286.14 169.757 285.279 169.757C284.419 169.757 283.705 170.04 283.138 170.606C282.592 171.15 282.319 171.874 282.319 172.775V181.86H278.068V166.299H281.973V167.713C282.519 167.169 283.18 166.739 283.957 166.425C284.755 166.11 285.615 165.953 286.539 165.953ZM312.077 158.283V181.86H308.172V179.942C307.647 180.676 306.944 181.242 306.062 181.64C305.201 182.038 304.236 182.237 303.165 182.237C301.716 182.237 300.415 181.891 299.26 181.2C298.126 180.487 297.234 179.513 296.583 178.276C295.933 177.04 295.607 175.646 295.607 174.095C295.607 172.544 295.933 171.15 296.583 169.914C297.234 168.677 298.126 167.713 299.26 167.022C300.415 166.309 301.716 165.953 303.165 165.953C305.138 165.953 306.692 166.571 307.825 167.808V158.283H312.077ZM303.952 178.37C305.023 178.37 305.947 178.014 306.723 177.302C307.5 176.568 307.888 175.499 307.888 174.095C307.888 172.712 307.5 171.654 306.723 170.92C305.947 170.165 305.023 169.788 303.952 169.788C302.818 169.788 301.863 170.186 301.086 170.983C300.31 171.758 299.921 172.785 299.921 174.064C299.921 175.363 300.299 176.411 301.055 177.207C301.832 177.983 302.797 178.37 303.952 178.37Z" fill="#00DBEE"/>
</svg>
