<svg width="340" height="140" viewBox="0 0 340 140" fill="none" xmlns="http://www.w3.org/2000/svg">
<g clip-path="url(#clip0_5_345)">
<path fill-rule="evenodd" clip-rule="evenodd" d="M0 60.066C4.86608 26.1056 34.0626 0 69.2838 0H69.5154C108.212 0 139.726 31.4192 139.726 70C139.726 73.4654 139.494 76.6996 139.031 79.934H20.1596V60.066H118.64C114.005 37.1948 93.6142 19.8679 69.2838 19.8679C44.9534 19.8679 24.5622 37.1948 19.9278 60.066H0ZM19.9278 79.934C24.5622 102.805 44.9534 120.132 69.2838 120.132C85.7358 120.132 100.334 112.046 109.603 99.802H132.774C121.652 123.597 104.737 140 69.2838 140C33.8308 140 4.86608 113.894 0 79.934H19.9278Z" fill="#00F85A"/>
<path fill-rule="evenodd" clip-rule="evenodd" d="M284.278 18.6666H280.064V23.6118H284.278V18.6666ZM284.278 27.8502H280.064V48.1008H284.278V27.8502ZM200.228 44.5688V48.3364H196.013L192.501 44.5688V18.9022H196.715V43.156L198.12 44.5688H200.228ZM171.43 24.5536V31.8532H185.243V36.0918H171.43V43.627H187.116V48.1008H166.981V20.0796H187.116V24.5536H171.43ZM221.064 39.3884V32.0886V31.8532L217.084 27.6146H207.72L203.74 31.8532V43.627L207.72 47.8654H217.552L221.064 44.0978L218.488 41.2722L215.914 44.0978H210.06L208.188 42.214V39.3884H221.064ZM216.85 33.5014V36.0918H216.616H207.954V33.5014L209.826 31.6178H214.978L216.85 33.5014ZM242.136 44.5688L238.858 48.1008H229.726L225.746 43.8624V32.0888L229.726 27.8502H238.624L241.902 31.3824L239.092 34.4434L236.516 31.6178H231.366L229.726 33.5014V42.214L231.366 44.0978H236.516L239.092 41.5076L241.902 44.5688H242.136ZM253.374 42.4496V32.0888H259.226V28.3212H253.374V20.5504H250.096L249.394 28.3212H244.712V32.0888H249.16V44.3334L252.906 48.3364H259.226V44.3334H255.246L253.374 42.4496ZM275.85 27.8502V32.3242H271.402L268.592 35.3854V48.1008H264.378V27.8502H268.124V31.8532L272.104 27.8502H275.85ZM306.286 44.5688L303.008 48.1008H293.878L289.898 43.8624V32.0888L293.878 27.8502H302.774L306.052 31.3824L303.242 34.4434L300.666 31.6178H295.516L293.878 33.5014V42.214L295.516 44.0978H300.666L303.242 41.5076L306.052 44.5688H306.286ZM326.654 48.3364V31.6178L326.888 31.1468L323.612 27.6146H313.544L310.266 31.1468L312.842 33.9724L315.182 31.3824H321.036L322.44 33.0306V35.8562L312.374 36.5628L309.564 39.6238V44.8044L312.842 48.3364H319.398L322.908 44.5688V48.3364H326.654ZM322.206 39.3884V40.8012L319.162 44.3334H314.948L313.778 43.156V41.0366L314.714 39.8594L322.206 39.3884ZM340 44.5688V48.3364H335.786L332.274 44.5688V18.9022H336.488V43.156L337.892 44.5688H340ZM221.064 68.5872V64.8196L222.704 63.1712H226.918V59.1682H220.596L216.85 63.1712V68.5872H212.402V72.3546H216.85V88.8378H221.064V72.3546H226.918V68.5872H221.064ZM187.116 77.0642V84.1284L182.902 88.8378H169.557L165.342 84.364L168.386 81.0672L171.664 84.5994H180.795L182.668 82.4802V78.948L181.029 77.2998L169.791 76.5934L165.811 72.3546V65.526L170.025 60.8166H182.433L186.414 65.055L183.37 68.3518L180.326 65.055H172.132L170.259 67.1744V70.471L171.898 72.1192L182.902 72.8256L186.882 77.0642H187.116ZM208.188 72.1192V88.8378H204.442V85.0704L200.93 88.8378H194.374L191.096 85.3058V80.1254L193.906 77.0642L203.974 76.3578V73.532L202.568 71.8838H196.715L194.374 74.474L191.798 71.6482L195.076 68.1162H205.144L208.422 71.6482L208.188 72.1192ZM203.974 81.5382V80.1254L196.481 80.5962L195.544 81.7736V83.893L196.715 85.0704H200.93L203.974 81.5382ZM247.754 72.8256V80.1254H234.878V82.951L236.75 84.8348H242.604L245.18 82.0092L247.754 84.8348L244.242 88.6024H234.41L230.43 84.364V72.5902L234.41 68.3518H243.774L247.754 72.5902V72.8256ZM243.54 76.8288V74.2386L241.668 72.3546H236.516L234.644 74.2386V76.8288H243.306H243.54ZM259.93 82.951V72.5902H265.782V68.8226H259.93V61.052H256.652L255.95 68.8226H251.266V72.5902H255.714V84.8348L259.46 88.8378H265.782V84.8348H261.802L259.93 82.951ZM287.322 68.5872L278.426 94.2538L275.382 97.315H270.23V93.3118H273.508L274.914 91.8992L276.318 88.1314L268.826 68.1162H273.508L278.66 82.7156L283.342 68.1162H287.79L287.322 68.5872Z" fill="#FBFBFB"/>
<path fill-rule="evenodd" clip-rule="evenodd" d="M186.218 104.673V101.341H189.348V104.673H186.218ZM186.218 121.333V107.557H189.348V121.333H186.218ZM229.744 110.189H225.524V117.385L226.838 118.673H229.744V121.333H225.162L222.394 118.589V110.189H219.154V107.557H222.562L223.094 102.293H225.524V107.557H229.744V110.189ZM214.984 113.381L217.052 115.453V119.009L214.704 121.333H206.74L204.504 119.121L206.488 117.133L208.138 118.813H213.084L213.922 117.973V116.405L213.278 115.733L207.076 115.313L205.008 113.241V109.881L207.326 107.557H214.62L216.744 109.657L214.76 111.645L213.224 110.077H208.948L208.138 110.917V112.317L208.78 112.961L214.984 113.381ZM202.41 107.557H199.531L196.793 110.301L196.681 107.557H193.887V121.333H197.016V112.653L199.112 110.553H202.41V107.557ZM171.239 105.261H182.724V102.293H167.941V121.333H171.239V113.269H181.327V110.329H171.239V105.261Z" fill="#FBFBFB"/>
</g>
<defs>
<clipPath id="clip0_5_345">
<rect width="340" height="140" fill="white"/>
</clipPath>
</defs>
</svg>
