<svg width="238" height="95" viewBox="0 0 238 95" fill="none" xmlns="http://www.w3.org/2000/svg">
<g clip-path="url(#clip0_5_233)">
<path d="M238 0V95H0V0H238ZM205.275 6.53125C188.02 6.53125 170.765 12.4688 170.765 32.6562C170.765 44.7687 179.928 48.6875 188.258 52.0125L189.091 52.3687C195.517 54.7437 201.11 57 201.11 62.3438C201.11 70.0625 190.995 71.25 184.45 71.25C177.905 71.25 169.575 69.4688 165.41 67.0938L160.65 83.125C167.195 85.5 176.715 87.2812 184.45 87.2812C202.895 87.2812 222.53 81.9375 222.53 60.5625C222.53 37.4062 192.185 40.9688 192.185 30.2812C192.185 23.75 198.73 22.5625 207.06 22.5625C213 22.5084 218.884 23.7231 224.315 26.125L229.075 10.0938C223.72 7.71875 214.795 6.53125 205.275 6.53125ZM49.385 8.90625H23.205L6.545 86.0938H26.18L36.89 32.6562H37.485L53.55 86.0938H79.135L95.795 8.90625H76.16L65.45 62.3438H64.855L49.385 8.90625ZM124.355 8.90625H102.935L87.465 86.0938H107.695L114.835 52.8438H139.23L132.685 86.0938H153.51L169.575 8.90625H148.75L142.205 38H118.405L124.355 8.90625Z" fill="black"/>
</g>
<defs>
<clipPath id="clip0_5_233">
<rect width="238" height="95" fill="white"/>
</clipPath>
</defs>
</svg>
