<svg width="340" height="147" viewBox="0 0 340 147" fill="none" xmlns="http://www.w3.org/2000/svg">
<g clip-path="url(#clip0_5_297)">
<path d="M275.291 147H17.5985C12.9358 146.986 8.46942 145.12 5.18006 141.812C1.89069 138.505 0.0472356 134.026 0.0544645 129.36V17.64C0.0472356 12.9735 1.89069 8.49487 5.18006 5.18751C8.46942 1.88015 12.9358 0.0144194 17.5985 0L275.182 0C278.655 0.000393536 282.085 0.769353 285.226 2.25181C288.368 3.73427 291.142 5.89354 293.352 8.575L334.478 58.31C338.007 62.5842 339.938 67.9554 339.938 73.5C339.938 79.0446 338.007 84.4158 334.478 88.69L293.298 138.507C291.105 141.167 288.35 143.308 285.232 144.777C282.114 146.245 278.71 147.005 275.264 147" fill="#000000"/>
<path d="M39.7664 106.983C40.936 107.31 42.9216 107.392 44.3088 107.392C51.1088 107.392 55.624 103.526 55.624 96.5028C55.624 90.65 51.272 87.1111 43.928 87.1111C42.432 87.1111 41.2352 87.1111 39.7664 87.3017V107.011V106.983ZM39.7664 79.38C42.5136 78.89 44.88 78.7811 49.6128 78.7811C52.0608 77.5017 53.856 74.6161 53.856 69.8522C53.856 63.5367 49.7216 60.5694 44.4992 60.5694C42.9216 60.5694 40.7456 60.76 39.7664 60.9505V79.38ZM26.0848 66.5855C26.0848 61.25 26.0848 58.3644 25.7856 54.2267C28.3424 53.5189 38.5696 52.2394 44.88 52.2394C64.0832 52.2394 67.1296 61.25 67.1296 67.8922C67.1296 74.0172 62.8048 78.5905 58.2896 80.85C66.7216 83.3272 70.8016 89.0711 70.8016 95.6044C70.8016 108.78 59.6496 115.722 43.52 115.722C37.6732 115.615 31.8437 115.051 26.0848 114.034V66.5855ZM93.3232 77.5833C90.1953 77.5833 86.632 80.6594 86.5232 87.6828C89.1072 87.9822 95.9888 87.9005 98.5456 87.6828C99.144 87.6828 99.5248 86.7028 99.5248 85.6139C99.5248 81.2583 97.8656 77.5833 93.432 77.5833H93.3232ZM110.378 104.043C110.271 106.093 109.69 108.089 108.68 109.875C107.67 111.661 106.258 113.188 104.557 114.333C103.197 114.932 98.8448 115.912 95.6896 115.912C81.0016 115.912 72.9504 108.181 72.9504 93.2361C72.9504 81.5305 80.8384 69.7705 94.3297 69.7705C107.413 69.7705 112.227 79.1622 112.227 87.3017C112.227 88.7717 112.037 89.8605 111.846 90.5683C111.574 91.9294 108.093 93.4267 103.768 94.6244C101.402 95.305 90.8753 95.4411 86.4416 95.2233C87.1216 103.336 93.3232 105.922 99.1441 105.922C103.958 105.922 108.501 104.424 110.16 103.744L110.378 104.016V104.043ZM125.229 101.158C125.229 104.424 127.677 106.33 130.75 106.33C132.709 106.33 133.715 105.922 134.994 104.833C135.565 104.125 135.864 103.145 135.864 101.348V94.6244C127.106 95.5228 125.256 98.8711 125.256 101.049V101.158H125.229ZM153.979 106.412C153.979 112.346 151.123 115.939 144.731 115.939C142.935 116.039 141.152 115.587 139.62 114.643C138.088 113.699 136.882 112.309 136.163 110.658C133.298 113.817 129.296 115.706 125.038 115.912C123.354 115.92 121.686 115.591 120.131 114.944C118.575 114.298 117.165 113.347 115.982 112.147C114.799 110.948 113.867 109.524 113.241 107.96C112.615 106.395 112.307 104.721 112.336 103.036C112.336 93.1272 123.27 90.3778 131.05 88.69L136.082 87.7917V86.5939C136.082 82.7283 133.307 79.87 128.683 79.87C125.338 79.87 121.992 81.4489 120.006 82.32C115.192 83.6267 113.914 79.4617 114.022 76.195C118.646 73.0372 125.827 69.7705 132.518 69.7705C140.896 69.7705 149.165 75.1061 149.165 86.5939C149.165 90.6772 148.784 97.2105 148.784 103.826C148.784 104.833 149.954 106.112 152.32 106.112C152.81 106.112 153.49 106.112 153.898 106.003L153.979 106.412ZM87.8288 36.4233C84.2113 36.4233 81.0289 39.3905 81.0289 46.1417C81.0289 53.0561 84.4288 56.6767 88.6448 56.6767C93.0512 56.6767 95.5264 52.9744 95.5264 46.795C95.5264 41.0239 92.8881 36.4233 87.8833 36.4233H87.8288ZM88.3729 32.6939C97.1312 32.6939 101.891 38.9005 101.891 46.305C101.891 53.9817 97.0768 60.4061 88.1552 60.4061C78.4448 60.4061 74.5552 53.3828 74.5552 46.7405C74.5552 38.7372 79.6688 32.6939 88.3456 32.6939H88.3729ZM116.09 48.3194C116.09 46.2233 114.893 44.9167 113.288 44.9167C111.846 44.9167 111.112 45.3794 110.214 46.0055V58.6911C110.214 59.3989 110.133 59.6167 109.154 59.7255C107.522 59.9978 106.053 60.025 104.258 60.025C104.312 57.4389 104.366 54.8255 104.366 52.4028V45.5155C104.366 44.3722 104.23 43.8278 103.55 43.3922V43.0655C103.986 41.8405 105.59 40.5611 107.086 40.5611C108.854 40.5611 109.589 41.8678 109.861 43.2289C111.683 41.7861 113.587 40.5611 115.573 40.5611C121.203 40.5611 121.938 45.3794 121.938 48.4011V53.3828C121.938 55.5061 121.992 58.0378 122.074 59.6983C121.122 59.78 119.163 60.025 117.069 60.025C116.389 60.025 116.09 59.7528 116.09 59.1539V48.3194ZM143.888 55.5878C144.078 56.6767 143.888 58.1739 143.154 58.8544C142.066 59.78 140.243 60.2972 138.176 60.2972C133.634 60.2972 132.301 57.3572 132.301 54.5261V44.8078C130.669 44.8078 129.771 43.9094 129.771 43.4739C131.315 41.495 133.076 39.6961 135.021 38.1111C135.782 37.485 136.653 36.9133 138.611 36.75C138.448 37.975 138.339 39.7444 138.339 41.0783H144.323C143.779 44.4267 142.854 44.5083 141.984 44.6172C141.25 44.6989 139.318 44.8078 138.176 44.8078C138.013 47.8294 138.067 51.7767 138.23 53.5189C138.448 55.37 139.482 56.1867 140.923 56.1867C142.174 56.1867 143.317 55.7239 143.752 55.5061L143.861 55.5878M151.014 42.9022C152.755 41.5411 154.442 40.5611 156.726 40.5611C160.317 40.5611 162.71 43.2289 162.71 47.9655V53.5461C162.71 55.5061 162.765 58.0378 162.846 59.6983C161.867 59.78 159.936 60.025 157.842 60.025C157.162 60.025 156.862 59.7528 156.862 59.0722V48.1833C156.862 46.3322 155.774 44.9167 154.006 44.9167C153 44.9167 151.994 45.2433 151.014 45.9239V58.5278C151.014 59.3444 150.933 59.6167 149.981 59.7528C148.294 59.9706 146.907 60.025 145.058 60.025C145.139 57.4117 145.166 54.8528 145.166 52.43V36.4233C145.166 33.8372 145.085 32.83 145.003 31.9317C145.819 31.605 149.138 31.0605 150.144 31.0605C150.851 31.0605 151.014 31.2783 151.014 33.8372V42.875M173.318 43.9094C171.958 43.9094 170.462 45.2161 170.408 48.2105C171.496 48.3467 174.461 48.3194 175.549 48.2105C175.821 48.2105 175.984 47.8022 175.984 47.3394C175.984 45.4611 175.25 43.9094 173.373 43.9094H173.318ZM180.608 55.2067C180.635 57.2756 178.867 59.29 178.106 59.6167C177.534 59.8617 175.658 60.2972 174.325 60.2972C168.069 60.2972 164.614 56.9761 164.614 50.6061C164.614 45.5972 167.987 40.5611 173.754 40.5611C179.33 40.5611 181.397 44.59 181.397 48.0472C181.397 48.7005 181.315 49.1361 181.234 49.4628C181.098 50.0344 179.629 50.6878 177.779 51.1778C176.773 51.4772 172.258 51.5317 170.381 51.45C170.653 54.9072 173.318 56.0233 175.821 56.0233C177.861 56.0233 179.792 55.37 180.526 55.0705L180.608 55.2067ZM191.896 104.343L191.706 104.043C189.149 105.023 185.586 105.813 181.07 105.813C174.27 105.813 167.878 101.648 167.878 92.0383C167.878 83.3272 173.101 79.1622 179.493 79.1622C181.859 79.1622 184.933 79.7611 186.973 80.5505C190.808 80.5505 192.195 76.4128 192.086 73.6361C190.237 71.7305 185.395 69.7705 178.704 69.7705C164.723 69.7705 153.979 79.5706 153.979 94.0256C153.979 107.201 162.765 115.912 176.936 115.912C178.922 115.912 180.934 115.722 182.811 115.341C184.819 114.981 186.728 114.202 188.414 113.054C189.586 112.162 190.512 110.988 191.107 109.64C191.701 108.293 191.945 106.817 191.814 105.35L191.896 104.343ZM292.835 112.128C288.238 106.629 280.106 102.437 270.259 100.532C268.627 100.232 266.886 99.9872 265.173 99.715H265.118C257.785 98.8967 250.363 99.4318 243.222 101.294C244.202 79.9789 257.285 65.8233 257.285 65.7689C258.917 66.8305 260.277 68.4639 261.12 70.7778C262.589 74.5344 261.909 77.8283 260.086 80.3055C261.718 80.0333 263.378 79.2983 264.819 77.5833C265.882 76.3767 266.602 74.9065 266.904 73.3262C267.205 71.746 267.077 70.1137 266.533 68.6C265.788 66.7138 264.4 65.1519 262.616 64.19C264.656 64.7344 266.696 65.7961 268.709 67.4022C270.851 68.9831 272.547 71.0937 273.629 73.5274C274.711 75.9611 275.144 78.6344 274.883 81.2855C277.314 79.2125 278.869 76.2941 279.235 73.1189C279.616 70.7179 279.367 68.2591 278.514 65.9831C277.66 63.707 276.231 61.6916 274.366 60.1339C273.157 59.186 271.796 58.4497 270.341 57.9561C273.074 58.0875 275.721 58.9531 278.004 60.462C280.287 61.9709 282.121 64.0674 283.315 66.5311C284.077 63.9722 284.267 61.1411 282.962 57.8744C282.077 55.4415 280.531 53.3041 278.498 51.7026C276.466 50.1011 274.027 49.0991 271.456 48.8094C269.552 48.6461 267.702 48.8911 266.016 49.4628C266.196 47.3205 265.891 45.1652 265.123 43.1574C264.356 41.1495 263.145 39.3409 261.582 37.8661C261.093 37.3761 260.494 36.9678 259.869 36.6683C253.504 33.5378 249.016 34.3 245.562 36.3961C250.294 37.485 254.538 40.7244 256.659 46.7405L256.795 47.1217C256.006 45.8422 255 44.6717 253.749 43.6644C251.831 42.1922 249.563 41.2469 247.168 40.9222C244.773 40.5975 242.334 40.9047 240.094 41.8133C237.086 42.8794 234.603 45.0628 233.158 47.9111C235.675 47.063 238.37 46.8881 240.975 47.4038C243.58 47.9195 246.005 49.1079 248.01 50.8511C249.844 52.2821 251.37 54.0692 252.498 56.105C251.165 54.5777 249.333 53.5742 247.33 53.2739C245.737 53.0769 244.121 53.3174 242.655 53.9696C241.189 54.6218 239.927 55.6611 239.006 56.9761C237.89 58.4638 237.314 60.2885 237.374 62.1483L237.347 62.6111C237.347 62.6111 247.602 56.7039 252.253 62.1483C248.336 65.3061 232.669 79.8428 226.685 115.259H294.195C294.739 115.259 295.066 114.578 294.658 114.17C294.059 113.571 293.461 112.863 292.835 112.128Z" fill="#FFFFFF"/>
<path d="M222.034 114.442C222.36 112.7 222.687 111.012 223.067 109.406C225.204 98.7445 228.956 88.4721 234.192 78.9445C233.37 76.2059 231.664 73.8174 229.341 72.1526C227.018 70.4877 224.209 69.6405 221.354 69.7434C216.05 69.7434 212.106 72.03 208.053 75.1878V54.0906C208.053 48.0473 207.672 47.5573 205.986 47.5573C203.619 47.5573 195.84 48.8367 193.963 49.6261C194.154 51.7223 194.371 54.0906 194.371 60.1339V97.6189C194.371 103.254 194.263 109.324 194.072 115.341C198.424 115.341 201.661 115.259 205.605 114.769C207.863 114.469 208.053 113.762 208.053 111.883V82.32C210.338 80.7411 212.677 79.9245 215.071 79.9245C219.205 79.9245 221.762 83.3 221.762 87.6556V113.054C221.762 113.653 221.843 114.088 222.034 114.415" fill="#FFFFFF"/>
</g>
<defs>
<clipPath id="clip0_5_297">
<rect width="340" height="147" fill="white"/>
</clipPath>
</defs>
</svg>
