<svg width="340" height="46" viewBox="0 0 340 46" fill="none" xmlns="http://www.w3.org/2000/svg">
<g clip-path="url(#clip0_5_291)">
<path fill-rule="evenodd" clip-rule="evenodd" d="M299.179 45.4342C305.382 45.4342 310.411 40.3801 310.411 34.1456C310.411 27.9111 305.382 22.857 299.179 22.857C292.976 22.857 287.947 27.9111 287.947 34.1456C287.947 40.3801 292.976 45.4342 299.179 45.4342ZM299.179 39.9216C302.353 39.9216 304.926 37.3356 304.926 34.1456C304.926 30.9556 302.353 28.3696 299.179 28.3696C296.005 28.3696 293.432 30.9556 293.432 34.1456C293.432 37.3356 296.005 39.9216 299.179 39.9216ZM260.749 45.4342C262.817 45.4342 264.493 43.7495 264.493 41.6713C264.493 39.5931 262.817 37.9085 260.749 37.9085C258.682 37.9085 257.005 39.5932 257.005 41.6713C257.005 43.7495 258.682 45.4342 260.749 45.4342ZM339.757 29.9383C339.296 26.9172 337.229 24.3909 334.369 23.3537C331.509 22.3164 328.313 22.9344 326.04 24.9642C324.521 23.6006 322.556 22.8471 320.52 22.8476C320.241 22.8476 319.967 22.8617 319.698 22.89C319.637 22.89 319.577 22.9088 319.516 22.9158C319.305 22.9417 319.094 22.9699 318.889 23.0123L318.725 23.0522C318.512 23.0993 318.304 23.151 318.098 23.2145L317.978 23.2545C317.758 23.325 317.541 23.405 317.33 23.4897L317.26 23.5202C317.033 23.6188 316.809 23.7262 316.591 23.8424L316.567 23.8542C316.005 24.1577 315.478 24.5254 315 24.9501L314.976 24.9972C313.385 26.4186 312.407 28.4068 312.25 30.5403L312.22 30.6015V45.4342H317.74V30.6014C317.741 30.2555 317.81 29.9133 317.943 29.5942C318.076 29.2751 318.27 28.9854 318.514 28.7417C318.758 28.498 319.048 28.305 319.366 28.1737C319.685 28.0425 320.026 27.9756 320.37 27.9769H320.634C322.081 27.973 323.257 29.1477 323.262 30.6014V45.4342H328.789V30.6014C328.79 30.2539 328.86 29.9101 328.994 29.5898C329.128 29.2695 329.324 28.9789 329.57 28.735C329.816 28.491 330.108 28.2984 330.429 28.1683C330.749 28.0382 331.092 27.9731 331.438 27.9769H331.7C332.044 27.9756 332.385 28.0425 332.704 28.1737C333.022 28.305 333.312 28.498 333.556 28.7417C333.8 28.9854 333.994 29.2751 334.127 29.5942C334.26 29.9133 334.329 30.2555 334.33 30.6014V45.4342H339.85V30.6014C339.848 30.3772 339.816 30.1544 339.757 29.9383ZM282.045 37.4028C280.617 39.4151 278.042 40.2435 275.717 39.4387C273.391 38.6338 271.87 36.3874 271.977 33.918C272.085 31.4486 273.796 29.3444 276.182 28.7468C278.569 28.1492 281.062 29.2005 282.31 31.3305L287.037 28.2026C284.414 23.9641 279.333 21.9597 274.542 23.2737C269.751 24.5877 266.387 28.908 266.27 33.898C266.153 38.8879 269.31 43.3628 274.034 44.9023C278.759 46.4418 283.928 44.6803 286.747 40.5707L282.045 37.4028ZM108.739 37.3817C108.012 37.7176 107.221 37.8917 106.42 37.892C105.675 37.8905 104.937 37.741 104.249 37.4523C103.561 37.1636 102.936 36.7412 102.411 36.2094C101.886 35.6776 101.47 35.0469 101.188 34.3533C100.906 33.6598 100.763 32.917 100.767 32.1678V22.9676H110.159V15.4419H100.767V7.94202H93.2788L93.2788 32.1654C93.2761 33.9026 93.6138 35.6234 94.2727 37.2295C94.9316 38.8355 95.8988 40.2954 97.1191 41.5258C98.3394 42.7562 99.7889 43.7329 101.385 44.4003C102.981 45.0677 104.692 45.4126 106.42 45.4154C108.708 45.4172 110.956 44.8094 112.935 43.6539L108.739 37.3817Z" fill="black"/>
<path fill-rule="evenodd" clip-rule="evenodd" d="M127.202 15.4066C120.931 15.4053 115.327 19.3438 113.177 25.2645C111.027 31.1852 112.788 37.8254 117.585 41.8848C122.382 45.9442 129.193 46.557 134.631 43.4187V45.42H142.119V30.4062C142.118 22.1254 135.441 15.4118 127.202 15.4066ZM127.202 37.9155C123.077 37.9155 119.732 34.5545 119.732 30.4086C119.732 26.2627 123.077 22.9017 127.202 22.9017C131.327 22.9017 134.671 26.2626 134.671 30.4086C134.671 34.5545 131.327 37.9155 127.202 37.9155ZM198.08 15.423C191.809 15.4218 186.206 19.3603 184.055 25.2809C181.905 31.2016 183.666 37.8419 188.463 41.9012C193.261 45.9606 200.071 46.5734 205.509 43.4351V45.4365H212.997V30.4227C212.996 22.1419 206.319 15.4282 198.08 15.423ZM198.08 37.932C195.059 37.9329 192.334 36.1045 191.178 33.2994C190.021 30.4944 190.659 27.2652 192.795 25.1177C194.931 22.9703 198.144 22.3276 200.935 23.4894C203.727 24.6512 205.547 27.3886 205.547 30.4251C205.547 34.5701 202.204 37.9307 198.08 37.932ZM144.475 45.42H151.959V4.14857H144.475V45.1073V45.42ZM90.9834 45.4177H83.4955V28.6283C83.4326 25.5127 80.9016 23.0201 77.8011 23.0201C74.7005 23.0201 72.1696 25.5127 72.1067 28.6283V45.4177H64.6188V28.6283C64.7149 21.38 70.5886 15.5549 77.8011 15.5549C85.0136 15.5549 90.8873 21.38 90.9834 28.6283V45.4177ZM174.926 35.1898C172.856 37.6797 169.419 38.5349 166.432 37.3036C163.445 36.0723 161.596 33.0381 161.862 29.8044C162.127 26.5707 164.447 23.8825 167.594 23.1603C170.742 22.4381 173.992 23.8483 175.628 26.6457L181.913 22.4807C178.385 16.7985 171.538 14.1532 165.132 15.9972C158.725 17.8414 154.31 23.7285 154.31 30.4262C154.31 37.124 158.725 43.0111 165.132 44.8552C171.538 46.6993 178.385 44.054 181.913 38.3717L175.616 34.202C175.413 34.5494 175.182 34.8798 174.926 35.1898ZM34.5312 45.4106L30.5158 38.0895L26.0371 29.9335C32.2589 25.3499 34.4491 17.0207 31.2928 9.94612C28.1365 2.87159 20.4917 -1.0254 12.9476 0.594676C5.40362 2.21475 0.0109814 8.91156 0.00708008 16.6648V45.4106H7.49504V33.092H16.387C17.2928 33.0885 18.1968 33.0098 19.0897 32.8568L25.9786 45.4036H34.5336L34.5312 45.4106ZM7.48804 25.5663V16.6648C7.47479 13.0472 9.63281 9.77844 12.9544 8.38482C16.2761 6.99119 20.106 7.74765 22.6559 10.3009C25.2057 12.8542 25.9725 16.7007 24.5982 20.0442C23.2238 23.3876 19.9794 25.5686 16.38 25.5686H7.48797L7.48804 25.5663ZM245.418 27.436C245.418 27.436 243.16 27.0949 242.175 26.4952C242.046 26.4017 241.924 26.2987 241.81 26.1871C241.791 26.1597 241.768 26.1351 241.742 26.1142C241.498 25.8712 241.309 25.5793 241.185 25.2575C241.062 24.9357 241.007 24.5913 241.026 24.2469L241.075 23.953C241.061 24.0094 241.054 24.0588 241.047 24.1011C241.057 24.0268 241.071 23.953 241.089 23.88L241.077 23.9529C241.142 23.6735 241.25 23.406 241.398 23.1604C241.813 22.5533 242.429 22.1141 243.136 21.921C243.599 21.8024 244.075 21.7509 244.552 21.7681C246.536 21.8175 248.516 22.5019 249.819 23.0616L253.002 17.375C250.943 16.479 246.337 14.7881 242.472 15.5571C237.663 16.1544 234.16 19.4681 233.854 23.7131C233.62 27.1067 235.473 30.2063 238.615 31.9702C238.751 32.0501 239.006 32.1818 239.334 32.3324L239.542 32.4264C240.45 32.8309 241.777 33.3295 242.79 33.4236C243.518 33.4795 244.24 33.588 244.952 33.7481C246.328 34.1715 247.28 35.2909 247.192 36.5373L247.142 36.8313C247.156 36.7749 247.163 36.7255 247.17 36.6832C247.16 36.7575 247.146 36.8313 247.128 36.9042L247.14 36.8313C247.075 37.1108 246.967 37.3783 246.819 37.6239C246.404 38.231 245.788 38.6702 245.081 38.8633C244.622 38.9808 244.15 39.0323 243.677 39.0161C240.286 38.9338 236.891 36.9889 236.891 36.9889L233.215 42.3698L234.125 42.8989C234.125 42.8989 240.588 46.2573 245.752 45.2248C250.561 44.6275 254.064 41.3138 254.371 37.0689C254.708 32.3629 250.987 28.2261 245.418 27.436ZM233.702 16.5025C232.065 15.7916 230.301 15.4258 228.518 15.4277C221.243 15.4368 215.349 21.3656 215.347 28.6777V45.4177H222.835V28.6777C222.832 25.5198 225.376 22.9573 228.518 22.9534C229.262 22.9536 229.999 23.1022 230.685 23.3909" fill="black"/>
<path fill-rule="evenodd" clip-rule="evenodd" d="M52.7598 35.9729C52.6709 36.0553 52.5866 36.1399 52.4954 36.2081C50.5172 37.8856 47.8635 38.518 45.3465 37.9118C42.8296 37.3056 40.7493 35.533 39.7424 33.1367H61.9255C63.3494 25.3029 58.4243 17.7192 50.716 15.876C43.0077 14.0328 35.2122 18.5748 32.9733 26.2137C30.7343 33.8525 34.8351 41.9165 42.3067 44.5675C49.7782 47.2184 58.0074 43.5291 61.0363 36.1705C61.0644 36.1023 61.0878 36.0317 61.1159 35.9635H52.7621L52.7598 35.9729ZM47.2444 22.3514C50.4577 22.3527 53.3397 24.3391 54.4984 27.3513H39.9905C41.15 24.34 44.0317 22.3547 47.2444 22.3538V22.3514Z" fill="black"/>
</g>
<defs>
<clipPath id="clip0_5_291">
<rect width="340" height="46" fill="white"/>
</clipPath>
</defs>
</svg>
