<svg width="340" height="24" viewBox="0 0 340 24" fill="none" xmlns="http://www.w3.org/2000/svg">
<g clip-path="url(#clip0_5_303)">
<mask id="mask0_5_303" style="mask-type:luminance" maskUnits="userSpaceOnUse" x="0" y="2" width="340" height="20">
<path d="M0 2.32422H340V21.6759H0V2.32422Z" fill="white"/>
</mask>
<g mask="url(#mask0_5_303)">
<path d="M312.238 14.9306C312.238 20.3559 317.549 21.6759 326.466 21.6759C334.506 21.6759 340 20.6586 340 15.633C340 10.8738 334.689 10.4742 326.125 10.0746C319.791 9.7476 318.487 9.48118 318.487 8.02799C318.487 6.63535 319.791 6.17517 325.285 6.17517C331.095 6.17517 333.483 6.68379 333.483 8.75459H339.074C339.074 4.10438 334.104 2.33633 325.906 2.33633C317.769 2.33633 312.896 3.65631 312.896 7.78579C312.896 12 316.648 13.2958 326.125 13.6712C333.178 13.9619 334.421 14.2404 334.421 15.7905C334.421 17.2679 332.655 17.837 326.783 17.837C319.706 17.837 317.842 16.9288 317.842 14.9306H312.238ZM308.364 6.42948V2.59064H285.378V21.3973H308.352V17.5585H290.957V13.9134H304.174V10.0746H290.957V6.42948H308.364ZM264.267 17.5585V2.59064H258.676V21.3973H281.029V17.5464H264.267V17.5585ZM235.726 13.5501L240.16 6.17517L244.57 13.5501H235.726ZM248.979 21.4095H255.155L243.924 2.59064H236.371L225.164 21.3973H231.316L233.643 17.389H246.653L248.979 21.4095ZM196.196 14.9306C196.196 20.3559 201.508 21.6759 210.425 21.6759C218.464 21.6759 223.958 20.6586 223.958 15.633C223.958 10.8738 218.647 10.4742 210.071 10.0746C203.737 9.7476 202.433 9.48118 202.433 8.02799C202.433 6.63535 203.737 6.17517 209.231 6.17517C215.041 6.17517 217.429 6.68379 217.429 8.75459H223.02C223.02 4.10438 218.05 2.33633 209.852 2.33633C201.715 2.33633 196.842 3.65631 196.842 7.78579C196.842 12 200.594 13.2958 210.071 13.6712C217.124 13.9619 218.367 14.2404 218.367 15.7905C218.367 17.2679 216.601 17.837 210.729 17.837C203.652 17.837 201.788 16.9288 201.788 14.9306H196.196ZM175.61 2.59064H148.895V6.44159H159.457V21.4095H165.048V6.44159H175.61V2.59064ZM143.962 6.42948V2.59064H120.975V21.3973H143.95V17.5585H126.567V13.9134H139.784V10.0746H126.567V6.42948H143.962ZM96.539 6.4537H106.479C108.16 6.4537 110.767 6.4537 110.767 9.29953C110.767 12.1211 108.16 12.3149 106.479 12.3149H96.539V6.4537ZM116.358 9.49329C116.358 5.30326 112.972 2.59064 108.038 2.59064H90.9477V21.3973H96.539V16.178H105.541L109.049 21.3973H115.628L111.62 15.8026C114.543 14.8217 116.346 12.5692 116.358 9.49329ZM58.8979 11.9758C58.8979 18.2367 62.9909 21.6759 72.5657 21.6759C81.2268 21.6759 85.5756 19.4719 86.1359 14.0103H80.4471C79.9233 17.0741 77.1825 17.619 72.5535 17.619C66.9012 17.619 64.4771 15.851 64.4771 11.9758C64.4771 8.13698 66.8647 6.38104 72.5535 6.38104C77.2068 6.38104 79.9112 6.88966 80.4471 9.92925H86.1359C85.5756 4.504 81.2268 2.32422 72.5657 2.32422C63.0031 2.32422 58.8979 5.73922 58.8979 11.9758ZM55.28 6.42948V2.59064H32.3055V21.3973H55.28V17.5585H37.8969V13.7439H51.1139V10.2562H37.8969V6.42948H55.28ZM0 14.9306C0 20.3559 5.31117 21.6759 14.2281 21.6759C22.2679 21.6759 27.7618 20.6586 27.7618 15.633C27.7618 10.8738 22.4506 10.4742 13.887 10.0746C7.55258 9.7476 6.23697 9.46907 6.23697 8.02799C6.23697 6.63535 7.5404 6.17517 13.0343 6.17517C18.8449 6.17517 21.2325 6.68379 21.2325 8.75459H26.8238C26.8238 4.10438 21.8538 2.33633 13.6555 2.33633C5.53044 2.32422 0.645624 3.6442 0.645624 7.78579C0.645624 12 4.39755 13.2958 13.8748 13.6712C20.928 13.9619 22.1705 14.2404 22.1705 15.7905C22.1705 17.2679 20.4041 17.837 14.5326 17.837C7.45513 17.837 5.59134 16.9288 5.59134 14.9306H0Z" fill="#1D1D1B"/>
</g>
</g>
<defs>
<clipPath id="clip0_5_303">
<rect width="340" height="24" fill="white"/>
</clipPath>
</defs>
</svg>
